<svg width="681" height="140" viewBox="0 0 681 140" fill="none" xmlns="http://www.w3.org/2000/svg">
<path d="M0.5 25.0112H0.589792H19.4461C19.5359 24.9813 19.5658 25.0112 19.5359 25.1012V101.02V101.11H19.6257H38.482H38.5718V101.02V41.6523L38.7514 41.4724V40.5728L38.931 40.3929V39.6733L39.1106 39.4934V38.9537C39.3201 38.8638 39.38 38.6239 39.2902 38.2341L39.6493 37.6944V37.3346C39.8289 37.2746 39.8888 37.0947 39.8289 36.7949L40.0085 36.615V36.4351L40.1881 36.2552V36.0753L40.3677 35.8954V35.7155L40.5473 35.5356V35.3557L40.7268 35.1758V34.9959L40.9064 34.816V34.6361C41.0561 34.6061 41.1159 34.4861 41.086 34.2762L41.4452 33.9164V33.7365L41.8043 33.3767V33.1968L42.1635 32.837V32.6571L42.8819 31.9375V31.7576L45.3062 29.3289H45.4858L46.2042 28.6093H46.3837L46.7429 28.2495H46.9225L47.8204 27.5299H48L48.1796 27.35H48.3592L48.5388 27.1701H48.7183L48.8979 26.9902H49.0775L49.2571 26.8103H49.4367L49.6163 26.6304H49.7958L50.3346 26.2706H50.6938C50.7536 26.0907 50.9332 26.0307 51.2325 26.0907L51.7713 25.7309H52.31L52.4896 25.551C52.8787 25.6409 53.1181 25.5809 53.2079 25.371H53.9263L54.1059 25.1911H55.0038L55.1834 25.0112H78.8885L79.0681 25.1911H79.966L80.1456 25.371H80.8639C80.9537 25.5809 81.1931 25.6409 81.5822 25.551L81.7618 25.7309H82.121L82.3006 25.9108H82.6597C82.7196 26.0907 82.8992 26.1506 83.1985 26.0907L83.7372 26.4505H84.0964L84.276 26.6304H84.4556L84.6352 26.8103H84.8147L84.9943 26.9902H85.1739C85.2038 27.1401 85.3236 27.2001 85.5331 27.1701L85.8922 27.5299H86.0718C86.1018 27.6798 86.2215 27.7398 86.431 27.7098L86.7902 28.0696H86.9698L87.3289 28.4294H87.5085L88.0473 28.9691H88.2268L89.4839 30.2284H89.6635L90.2921 30.8581V31.038L91.5491 32.2973V32.4772L91.9083 32.837V33.0169L92.4471 33.5566V33.7365C92.5967 33.7665 92.6566 33.8865 92.6267 34.0963L92.9858 34.4561V34.6361L93.1654 34.816V34.9959L93.345 35.1758V35.3557L93.5246 35.5356V35.7155L93.7042 35.8954V36.0753L94.0633 36.615V36.9748L94.2429 37.1547V37.5145L94.6021 38.0542V38.5939L94.7817 38.7738C94.7218 39.0737 94.7817 39.2536 94.9612 39.3135V40.0331L95.1408 40.213V40.9327L95.3204 41.1126V42.7317L95.5 42.9116V119.91V120H95.4102H76.5539H76.4641V119.91V43.991C76.494 43.9011 76.4641 43.8711 76.3743 43.9011H57.518H57.4282V43.991V103.179L57.2486 103.359V104.438L57.069 104.618V105.158L56.8894 105.338V105.878C56.6799 105.968 56.62 106.207 56.7098 106.597L56.5302 106.777V107.137C56.3507 107.197 56.2908 107.377 56.3507 107.677L56.1711 107.857V108.036L55.8119 108.576V108.936L55.6323 109.116V109.296L55.4527 109.476V109.656C55.3031 109.686 55.2432 109.805 55.2732 110.015L54.914 110.375V110.555L54.7344 110.735V110.915C54.5847 110.945 54.5249 111.065 54.5548 111.275L54.0161 111.814V111.994L53.6569 112.354V112.534L52.9386 113.254V113.434L50.8733 115.502H50.6938L49.9754 116.222H49.7958L49.2571 116.762H49.0775L48.7183 117.122H48.5388C48.5088 117.271 48.3891 117.331 48.1796 117.301L47.8204 117.661H47.6408L47.4612 117.841H47.2817L47.1021 118.021H46.9225L46.7429 118.201H46.5633L46.0246 118.561H45.6654L45.1267 118.921H44.7675L44.5879 119.1H44.2287L44.0491 119.28C43.7498 119.22 43.5703 119.28 43.5104 119.46C43.1213 119.37 42.8819 119.43 42.7921 119.64H42.0737L41.8941 119.82H40.9962L40.8166 120H17.2911L17.1115 119.82H16.034L15.8544 119.64H15.1361C15.0463 119.43 14.8069 119.37 14.4178 119.46L14.2382 119.28H13.879C13.8192 119.1 13.6396 119.041 13.3403 119.1L12.8015 118.741H12.4423L11.9036 118.381H11.5444L11.3648 118.201H11.1853L11.0057 118.021H10.8261C10.7962 117.871 10.6764 117.811 10.4669 117.841L10.1078 117.481H9.92817C9.89824 117.331 9.77851 117.271 9.569 117.301L9.20983 116.942H9.03025L8.67108 116.582H8.49149L7.95274 116.042H7.77316L7.05482 115.323H6.87524L5.34877 113.793V113.613L4.45085 112.714V112.534L3.9121 111.994V111.814L3.19376 110.915V110.735L3.01418 110.555V110.375L2.83459 110.195V110.015L2.65501 109.835V109.656L2.47543 109.476V109.296L2.29584 109.116V108.936L2.11626 108.756V108.576L1.75709 108.036V107.677L1.5775 107.497V107.137L1.39792 106.957C1.45778 106.657 1.39792 106.477 1.21834 106.417V105.878C1.00882 105.788 0.94896 105.548 1.03875 105.158L0.859168 104.978V104.258L0.679584 104.079V102.819L0.5 102.639V25.1012V25.0112Z" fill="white" stroke="white"/>
<path d="M161.027 110.545C155.774 110.545 151.036 109.652 146.813 107.867C142.624 106.082 139.156 103.541 136.41 100.245C133.697 96.9147 131.929 92.9835 131.105 88.4515L140.581 86.958C141.783 91.6273 144.272 95.2838 148.049 97.9275C151.86 100.537 156.34 101.841 161.49 101.841C164.82 101.841 167.825 101.326 170.503 100.296C173.215 99.2322 175.361 97.7215 176.94 95.7645C178.519 93.8075 179.309 91.49 179.309 88.812C179.309 87.164 179.017 85.7563 178.434 84.589C177.884 83.3873 177.112 82.3745 176.116 81.5505C175.155 80.6922 174.056 79.9712 172.82 79.3875C171.584 78.8038 170.297 78.3232 168.958 77.9455L150.057 72.332C147.997 71.714 146.006 70.9415 144.083 70.0145C142.16 69.0532 140.444 67.8687 138.933 66.461C137.422 65.019 136.221 63.3023 135.328 61.311C134.435 59.2853 133.989 56.8992 133.989 54.1525C133.989 49.7578 135.122 46.0155 137.388 42.9255C139.688 39.8012 142.796 37.415 146.71 35.767C150.624 34.119 155.035 33.3122 159.945 33.3465C164.923 33.3808 169.37 34.2735 173.284 36.0245C177.232 37.7412 180.494 40.2132 183.068 43.4405C185.678 46.6678 187.429 50.5303 188.322 55.028L178.588 56.7275C178.073 53.7062 176.923 51.114 175.138 48.951C173.387 46.7537 171.189 45.0713 168.546 43.904C165.902 42.7023 163.001 42.0843 159.842 42.05C156.821 42.0157 154.091 42.4963 151.654 43.492C149.216 44.4877 147.276 45.8782 145.834 47.6635C144.392 49.4145 143.671 51.4402 143.671 53.7405C143.671 56.0065 144.323 57.8433 145.628 59.251C146.933 60.6243 148.529 61.723 150.418 62.547C152.34 63.3367 154.211 63.989 156.031 64.504L170.142 68.5725C171.756 69.0188 173.61 69.6368 175.704 70.4265C177.833 71.2162 179.893 72.332 181.884 73.774C183.875 75.1817 185.523 77.07 186.828 79.439C188.133 81.7737 188.785 84.7263 188.785 88.297C188.785 91.8677 188.064 95.0435 186.622 97.8245C185.214 100.605 183.24 102.94 180.699 104.828C178.159 106.682 175.206 108.09 171.842 109.052C168.477 110.047 164.872 110.545 161.027 110.545ZM223.02 110.545C217.39 110.545 212.6 109.292 208.652 106.785C204.738 104.245 201.751 100.76 199.691 96.331C197.631 91.902 196.567 86.855 196.498 81.19C196.567 75.3877 197.648 70.2892 199.742 65.8945C201.871 61.4655 204.91 58.015 208.858 55.543C212.806 53.071 217.561 51.835 223.123 51.835C228.994 51.835 234.041 53.277 238.264 56.161C242.522 59.045 245.371 62.9933 246.813 68.006L237.749 70.7355C236.582 67.5082 234.677 65.0018 232.033 63.2165C229.424 61.4312 226.419 60.5385 223.02 60.5385C219.209 60.5385 216.068 61.4312 213.596 63.2165C211.124 64.9675 209.287 67.4052 208.085 70.5295C206.884 73.6195 206.266 77.173 206.231 81.19C206.3 87.37 207.725 92.3655 210.506 96.1765C213.321 99.9532 217.493 101.841 223.02 101.841C226.66 101.841 229.681 101.017 232.084 99.3695C234.488 97.6872 236.307 95.2667 237.543 92.108L246.813 94.5285C244.891 99.7128 241.887 103.678 237.801 106.425C233.715 109.172 228.788 110.545 223.02 110.545ZM279.917 110.545C274.458 110.545 269.686 109.343 265.6 106.94C261.549 104.502 258.39 101.12 256.124 96.7945C253.858 92.4342 252.725 87.3528 252.725 81.5505C252.725 75.4735 253.841 70.2205 256.073 65.7915C258.305 61.3282 261.412 57.8948 265.394 55.4915C269.411 53.0538 274.115 51.835 279.505 51.835C285.102 51.835 289.857 53.1225 293.771 55.6975C297.719 58.2725 300.672 61.9462 302.629 66.7185C304.62 71.4908 305.479 77.173 305.204 83.765H295.934V80.469C295.831 73.6367 294.44 68.5382 291.762 65.1735C289.084 61.7745 285.102 60.075 279.814 60.075C274.149 60.075 269.841 61.8947 266.888 65.534C263.935 69.1733 262.459 74.392 262.459 81.19C262.459 87.7477 263.935 92.829 266.888 96.434C269.841 100.039 274.046 101.841 279.505 101.841C283.179 101.841 286.372 101 289.084 99.318C291.797 97.6357 293.925 95.2152 295.47 92.0565L304.277 95.095C302.114 100.005 298.852 103.816 294.492 106.528C290.166 109.206 285.308 110.545 279.917 110.545ZM259.369 83.765V76.4005H300.466V83.765H259.369ZM354.765 109V81.1385C354.765 78.4948 354.524 75.9542 354.044 73.5165C353.597 71.0788 352.791 68.8987 351.623 66.976C350.49 65.019 348.945 63.474 346.988 62.341C345.066 61.208 342.628 60.6415 339.675 60.6415C337.375 60.6415 335.281 61.0363 333.392 61.826C331.538 62.5813 329.942 63.7487 328.603 65.328C327.264 66.9073 326.217 68.8987 325.461 71.302C324.74 73.671 324.38 76.4692 324.38 79.6965L318.354 77.8425C318.354 72.4522 319.316 67.8343 321.238 63.989C323.195 60.1093 325.925 57.1395 329.427 55.0795C332.963 52.9852 337.117 51.938 341.89 51.938C345.495 51.938 348.568 52.5045 351.108 53.6375C353.649 54.7705 355.76 56.2812 357.443 58.1695C359.125 60.0235 360.447 62.1178 361.408 64.4525C362.37 66.7528 363.039 69.1047 363.417 71.508C363.829 73.877 364.035 76.1258 364.035 78.2545V109H354.765ZM315.11 109V53.38H323.35V68.2635H324.38V109H315.11ZM401.023 110.545C395.564 110.545 390.792 109.343 386.706 106.94C382.655 104.502 379.496 101.12 377.23 96.7945C374.964 92.4342 373.831 87.3528 373.831 81.5505C373.831 75.4735 374.947 70.2205 377.178 65.7915C379.41 61.3282 382.517 57.8948 386.5 55.4915C390.517 53.0538 395.221 51.835 400.611 51.835C406.207 51.835 410.962 53.1225 414.876 55.6975C418.825 58.2725 421.777 61.9462 423.734 66.7185C425.726 71.4908 426.584 77.173 426.309 83.765H417.039V80.469C416.936 73.6367 415.546 68.5382 412.868 65.1735C410.19 61.7745 406.207 60.075 400.92 60.075C395.255 60.075 390.946 61.8947 387.993 65.534C385.041 69.1733 383.564 74.392 383.564 81.19C383.564 87.7477 385.041 92.829 387.993 96.434C390.946 100.039 395.152 101.841 400.611 101.841C404.285 101.841 407.478 101 410.19 99.318C412.902 97.6357 415.031 95.2152 416.576 92.0565L425.382 95.095C423.219 100.005 419.958 103.816 415.597 106.528C411.271 109.206 406.413 110.545 401.023 110.545ZM380.474 83.765V76.4005H421.571V83.765H380.474ZM458.787 110.494C452.161 110.494 446.719 109.051 442.462 106.167C438.239 103.249 435.647 99.1807 434.685 93.962L444.058 92.4685C444.814 95.4898 446.548 97.8932 449.26 99.6785C451.972 101.429 455.337 102.305 459.354 102.305C463.165 102.305 466.152 101.515 468.315 99.936C470.478 98.3567 471.559 96.2108 471.559 93.4985C471.559 91.9192 471.199 90.6488 470.478 89.6875C469.757 88.6918 468.263 87.7648 465.997 86.9065C463.766 86.0482 460.384 85.0182 455.852 83.8165C450.942 82.5118 447.08 81.1557 444.264 79.748C441.449 78.3403 439.441 76.7095 438.239 74.8555C437.037 73.0015 436.436 70.7527 436.436 68.109C436.436 64.8473 437.329 61.9977 439.114 59.56C440.9 57.088 443.389 55.1825 446.582 53.8435C449.809 52.5045 453.552 51.835 457.809 51.835C462.032 51.835 465.809 52.5045 469.139 53.8435C472.469 55.1825 475.147 57.088 477.173 59.56C479.233 61.9977 480.452 64.8473 480.829 68.109L471.456 69.8085C471.01 66.8215 469.568 64.4697 467.13 62.753C464.727 61.0363 461.62 60.1265 457.809 60.0235C454.204 59.8862 451.268 60.5213 449.002 61.929C446.771 63.3367 445.655 65.2422 445.655 67.6455C445.655 68.9845 446.067 70.1347 446.891 71.096C447.749 72.0573 449.311 72.9672 451.577 73.8255C453.878 74.6838 457.208 75.6623 461.568 76.761C466.478 77.997 470.341 79.3532 473.156 80.8295C476.006 82.2715 478.031 83.9882 479.233 85.9795C480.435 87.9365 481.035 90.357 481.035 93.241C481.035 98.597 479.061 102.82 475.113 105.91C471.165 108.966 465.723 110.494 458.787 110.494ZM523.448 109C520.152 109.652 516.89 109.91 513.663 109.773C510.47 109.67 507.62 109.034 505.114 107.867C502.608 106.665 500.702 104.811 499.398 102.305C498.299 100.108 497.698 97.8932 497.595 95.6615C497.526 93.3955 497.492 90.8377 497.492 87.988V37.93H506.659V87.576C506.659 89.842 506.676 91.7818 506.711 93.3955C506.779 95.0092 507.14 96.3997 507.792 97.567C509.028 99.7643 510.985 101.052 513.663 101.43C516.375 101.807 519.637 101.704 523.448 101.12V109ZM486.214 60.9505V53.38H523.448V60.9505H486.214ZM556.117 110.545C550.589 110.545 545.817 109.292 541.8 106.785C537.817 104.279 534.744 100.811 532.581 96.3825C530.418 91.9535 529.337 86.8722 529.337 81.1385C529.337 75.3018 530.435 70.1862 532.633 65.7915C534.83 61.3968 537.937 57.9807 541.954 55.543C545.971 53.071 550.692 51.835 556.117 51.835C561.679 51.835 566.468 53.0882 570.485 55.5945C574.502 58.0665 577.575 61.517 579.704 65.946C581.867 70.3407 582.948 75.4048 582.948 81.1385C582.948 86.9408 581.867 92.0565 579.704 96.4855C577.541 100.88 574.451 104.331 570.434 106.837C566.417 109.309 561.644 110.545 556.117 110.545ZM556.117 101.841C561.885 101.841 566.176 99.9188 568.992 96.0735C571.807 92.2282 573.215 87.2498 573.215 81.1385C573.215 74.8555 571.79 69.86 568.94 66.152C566.091 62.4097 561.816 60.5385 556.117 60.5385C552.237 60.5385 549.044 61.414 546.538 63.165C544.031 64.916 542.16 67.3365 540.924 70.4265C539.688 73.5165 539.07 77.0872 539.07 81.1385C539.07 87.3872 540.512 92.3998 543.396 96.1765C546.28 99.9532 550.52 101.841 556.117 101.841ZM594.287 109V53.38H602.476V66.8215L601.137 65.0705C601.789 63.3538 602.63 61.7745 603.66 60.3325C604.724 58.8905 605.909 57.706 607.214 56.779C608.656 55.6117 610.286 54.719 612.106 54.101C613.926 53.483 615.78 53.1225 617.668 53.0195C619.556 52.8822 621.325 53.0023 622.973 53.38V61.9805C621.05 61.4655 618.938 61.3282 616.638 61.5685C614.338 61.8088 612.209 62.65 610.252 64.092C608.467 65.3623 607.076 66.9073 606.081 68.727C605.119 70.5467 604.45 72.5208 604.072 74.6495C603.694 76.7438 603.506 78.8897 603.506 81.087V109H594.287ZM639.43 133.72L650.194 104.468L650.348 113.12L626.04 53.38H635.671L654.726 101.43H651.43L669.3 53.38H678.622L648.34 133.72H639.43Z" fill="white"/>
</svg>
